<svg xmlns="http://www.w3.org/2000/svg" width="200" height="200" fill="none" viewBox="0 0 200 200">
<!-- SVG created with Arrow, by QuiverAI (https://quiver.ai) -->
  <path d="m177 103.7c-0.51-2.84-2.78-4.54-5.62-4.03l-100.8 19.49c-2.84 0.51-4.51 3.27-3.99 6.11l10.05 63.82c0.51 2.84 3.26 5.03 6.1 4.52l103.3-18.97c2.84-0.51 4.52-3.27 4.01-6.11l-0.61-2.41c0.69-0.86 0.98-1.94 0.76-3.11l-2.97-15.57c-0.23-1.17-0.91-1.96-1.88-2.47l-8.4-41.27z" fill="#515F71" stroke="#00112C" stroke-miterlimit="10" stroke-width="2"/>
  <path d="m71.48 126.8c1.38 0 2.5-1.12 2.5-2.5s-1.12-2.5-2.5-2.5-2.5 1.12-2.5 2.5 1.12 2.5 2.5 2.5z" fill="#7D8BA0" stroke="#00112C" stroke-miterlimit="10"/>
  <path d="m172 107.9c1.38 0 2.5-1.12 2.5-2.5s-1.12-2.5-2.5-2.5-2.5 1.12-2.5 2.5 1.12 2.5 2.5 2.5z" fill="#7D8BA0" stroke="#00112C" stroke-miterlimit="10"/>
  <path d="m83.81 192.1c1.38 0 2.5-1.12 2.5-2.5s-1.12-2.5-2.5-2.5-2.5 1.12-2.5 2.5 1.12 2.5 2.5 2.5z" fill="#7D8BA0" stroke="#00112C" stroke-miterlimit="10"/>
  <path d="m184.3 171.8c1.38 0 2.5-1.12 2.5-2.5s-1.12-2.5-2.5-2.5-2.5 1.12-2.5 2.5 1.12 2.5 2.5 2.5z" fill="#7D8BA0" stroke="#00112C" stroke-miterlimit="10"/>
  <path d="m132.4 174.9c1.68 0 3.04-1.36 3.04-3.04s-1.36-3.04-3.04-3.04-3.04 1.36-3.04 3.04 1.36 3.04 3.04 3.04z" fill="#7D8BA0" stroke="#00112C" stroke-miterlimit="10"/>
  <path d="m98.31 173.6 64.4-11.9c1.46-0.29 2.21 0.44 3.01 1.84l6.57 12.32-75.52 15.08 1.13-15.42c-0.08-0.95-0.62-1.71 0.41-1.92z" fill="#3B4859" stroke="#00112C" stroke-miterlimit="10"/>
  <path d="m74.06 131.5 2.6 1.27 3.58 18.96 1.77 18.41c0.21 1.6 1.22 2.49 2.82 2.27l91.85-17.62c1.6-0.22 2.29-1.38 2.07-2.98l-6.59-38.66-5.34-4.89-92.76 17.47v5.77z" fill="#F6EED5" stroke="#00112C" stroke-miterlimit="10"/>
  <path d="m77.72 131.8 94.53-6.91 1.23 1.02 0.73 3.86-95.44 12.22-1.05-10.19z" fill="#F08062"/>
  <path d="m78.98 139.1 95.91-10.03 1.2 6.66-96.23 11.46-0.88-8.09z" fill="#F7B057"/>
  <path d="m79.91 147.5 96.75-10.91 1.06 6.4-96.84 12.4-0.97-7.89z" fill="#A766B7"/>
  <path d="m81.32 156.3 96.6-9.24 0.83 4.02c0.22 1.6-0.47 2.76-2.07 2.98l-92.37 17.84c-1.6 0.22-2.61-0.67-2.83-2.27l-0.16-13.33z" fill="#EB6099"/>
  <path d="m104.1 158.6 48.36-9.11c6.52-1.24 10.04-8.19 7.7-13.93-1.85-4.7-6.26-6.81-11.26-5.86l-47.28 8.94c-6.52 1.24-9.57 7.1-8 13.11 1.49 5.78 6.39 7.63 10.48 6.85z" fill="#293642" stroke="#00112C" stroke-miterlimit="10"/>
  <path d="m104.4 155.7c5-0.95 8.35-6.1 6.78-11-1.42-4.63-5.83-6.48-9.72-5.6-4.83 1.15-7.24 6.05-5.81 10.68 1.35 4.7 5.25 6.69 8.75 5.92z" fill="#00112C"/>
  <path d="m103.4 142.5-1.13 2.16-2.16-0.21-1.68 2.85 1.33 0.95-0.76 2.36 1.92 1.92 1.2-1.27 1.6 1.2 3.14-1.06-0.15-2.06 2.06-0.59-0.5-3.41-1.85 0.07-0.51-1.92-2.51-0.99z" fill="#FEFFFE"/>
  <path d="m151 148.1c5-0.95 8.77-6.02 7.2-11.47-1.43-5.1-5.84-6.68-9.73-5.87-4.83 1.03-7.24 5.93-5.81 11.03 1.28 4.97 4.84 7.08 8.34 6.31z" fill="#00112C"/>
  <path d="m150.1 134.1-1.13 1.85-2.16-0.21-1.68 2.85 1.33 0.95-0.76 2.36 1.92 1.92 1.2-1.27 1.6 1.2 2.68-1.05-0.14-2.43 2.06-1.06-0.51-2.92-1.85 0.07-0.51-1.5-2.05-0.76z" fill="#FEFFFE"/>
  <path d="m114.8 140.1 24.14-4.47c0.88-0.15 1.31 0.54 1.45 1.49l0.6 10.3c0.14 0.95-0.37 1.52-1.32 1.66l-22.79 4.19c-0.95 0.15-1.51-0.22-1.66-1.17l-1.35-9.9c-0.15-0.95-0.02-1.89 0.93-2.1z" fill="#00112C" stroke="#00112C" stroke-miterlimit="10"/>
  <path d="m124.2 138.3 11-2.13c-3.07 1.99-4.01 8-0.26 13.1l-8.52 1.61c2.5-4.63 1.4-9.53-2.22-12.58z" fill="#E8E8E8"/>
  <path d="m115.1 142.8 1.57 7.15c-0.8-1.27-1.68-4.68-1.57-7.15z" fill="#E8E8E8"/>
  <path d="m116.9 178.1 1.85-0.36c1.13-0.22 1.69 0.54 1.76 1.6l0.07 1.6c0.07 1.06-0.44 1.77-1.57 1.84l-2.06 0.29c-1.13 0.22-2.08-0.61-2.15-1.67l-0.07-1.06c-0.07-1.06 1.04-2.1 2.17-2.24z" fill="#00112C"/>
  <path d="m148.1 171.7 1.13-0.29c1.13-0.22 1.69 0.54 1.76 1.6l0.07 1.6c0.07 1.06-0.44 1.77-1.57 1.84l-1.13 0.22c-1.13 0.22-2.08-0.37-2.15-1.43l-0.07-1.6c-0.07-1.06 0.83-1.8 1.96-1.94z" fill="#00112C"/>
  <path d="m159.1 176.8c2.29 0 3.58-1.57 3.58-3.14s-1.29-2.71-2.72-2.71c-1.85 0-3.27 1.42-3.27 2.85 0 1.57 0.95 3 2.41 3z" fill="#00112C"/>
  <path d="m107.3 187.1c2.19 0 2.7-1.5 2.7-2.92 0-1.65-1.02-2.78-2.45-2.78-1.78 0-2.98 1.2-2.98 2.92 0 1.57 1.02 2.78 2.73 2.78z" fill="#00112C"/>
  <path d="m73.11 168.1 1.43 0.51 3.21 18.52-0.69 0.95-1.2-1.37-2.75-18.61z" fill="#00112C"/>
  <path d="m90.08 6.02c-15.32-2.28-28.67 6.69-33.77 21.09-7.6-9.97-18.37-13.26-27.49-11.59-13.91 2.21-23.88 13.9-23.88 28.22 0 17.37 11.69 31.15 34.57 44.93 9.61 5.77 18.2 9.95 29.47 15.71l3.63 1.57 1.43-1.57c13.78-16.47 23.61-26.77 33-44.41s7.97-50.18-16.96-53.95z" fill="#F5D786" stroke="#00112C" stroke-miterlimit="10" stroke-width="2"/>
  <path d="m83.18 9.08c-13.07 1.06-21.27 9.65-25.46 21.62l-1.43-1.57c-7.1-8.97-16.88-11.89-25.15-10.4-12.4 1.86-21.86 11.97-21.86 24.69 0 15.56 11.2 28.21 32.13 40.86 8.73 5.3 16.6 9.34 27.05 14.64l4.05 1.79c9.71-11.34 18.4-21.72 24.77-33.27 7.73-13.88 11.7-20.1 11.91-33.56-0.48-13.22-9.94-26.22-26.01-24.8z" fill="url(#paint0_linear_1152_11863)"/>
  <path d="m26.56 34.09-4.45-0.76-2.19-5.17-1.3 5.1-4.13 2.19 4.76 1.75 1.99 3.11 1.68-4.3 3.64-1.92z" fill="#7A98C6"/>
  <path d="m34.91 27.11-2.25-0.5-1.13-2.05-0.51 2.55-2.19 1.05 2.12 0.56 0.79 2.39 1.13-2.47 2.04-1.53z" fill="#7A98C6"/>
  <path d="m19.32 50.86-2.77-3.77-0.69 3.11-2.51 0.95 2.92 0.88 0.79 1.92 0.88-2.44 1.99-0.58-0.61-0.07z" fill="#B7C2CE"/>
  <path d="m99.74 27.46-1.49-3.4-1.53 2.85-2.06 1.1 2.5 1.06 0.15 2.53 1.56-2.53 2.77-1.13-1.9-0.48z" fill="#D69843"/>
  <path d="m92.95 17.1-3.77-1.06-1.64-4.01-1.2 5.5-3.28 1.57 4.76 1.5 1.57 4.01 1.06-5.16 2.5-2.35z" fill="#D69843"/>
  <path d="m35.87 97.11-4.94-1.71-3.95-6.16-1.42 6.67-6.45 2.53 6.66 1.42 2.68 6.59 1.74-6.81 5.68-2.53z" fill="#D69843"/>
  <path d="m46.98 81.33-2.19-0.59-0.95-2.99-1.57 2.29-2.44-0.51 1.43 2.53-0.95 2.67 2.92-1.57 2.84 1.57 0.91-3.4z" fill="#A766B7"/>
  <path d="m34.76 73.74-1.5-0.88-0.51-1.5-0.69 1.78-1.75 0.49 1.64 0.79 0.22 1.5 1.06-1.36 1.85-0.21-0.32-0.61z" fill="#F5EED5"/>
  <path d="m76.58 90.81-1.85-0.76-0.95-2.44-1.06 2.73-1.71 0.88 2.26 0.99 1.06 2.22 0.63-2.73 2.37-0.76-0.75-0.13z" fill="#FEFFFE"/>
  <path d="m120.9 93.06c0-5.1 1.5-6.95 5.66-9.62 1.99-1.2 2.78-2.7 2.78-4.34 0-2.67-1.92-3.8-4.29-3.8-3.35 0-4.92 2.16-4.99 5.08h-6.08c0-6.46 4.48-10.36 11.07-10.36 5.95 0 10.25 3.22 10.25 9.01 0 3.89-1.85 6.18-6.18 8.78-1.99 1.13-2.06 2.81-2.06 5.25h-6.16zm3.5 2.67c2.92 0 4.05 1.78 4.05 3.56 0 2.16-1.32 4.08-3.69 4.08-2.99 0-4.28-1.71-4.28-4.01 0-2.13 1.36-3.63 3.92-3.63z" fill="#00112C"/>
  <path d="m189.5 87.61v16c0 2.6-5.24 4.86-6.77 1.94-1.85-3.64 2.52-5.9 5.51-5.11v-12.83c0-0.95 1.19-1.23 1.7-0.47 1.27 2.29 5.04 4.48 5.33 8.02 0.29 2.76-0.91 4.19-1.93 4.88l-0.36-0.39c0.88-1.92 0.95-4.28-1.55-6.3-1.06-0.88-1.93-1.31-1.93-5.74z" fill="#00112C"/>
  <path d="m165.7 74.42 12.12-4.19c0.79-0.29 1.08 0.29 1.01 1.17v14.85c0 2.6-2.09 4.09-3.73 4.09-2.19 0-3.69-1.2-3.69-3.12 0-2.29 2.3-3.56 3.73-3.56h1.78v-7.45l-9.83 2.92-0.36 10.92c0 2.6-1.64 3.73-3.83 3.73-2.43 0-3.7-1.42-3.7-3.37 0-2.22 1.99-3.17 3.41-3.1l2.26 0.42 0.83-13.31z" fill="#00112C"/>
  <path d="m53.67 163 11.69-4.19c0.95-0.36 1.46 0.22 1.39 1.28v13.85c0 2.6-1.54 4.03-3.39 4.03-2.26 0-3.68-1.27-3.68-2.91 0-2.16 1.99-3.04 3.49-3.04h1.78v-7.82l-10.38 2.92v10.7c0 2.6-2.06 4.03-4.32 4.03-2.19 0-3.07-1.75-3.07-3.1 0-2.19 1.99-3.32 3.42-3.25l2.33 0.51 0.74-41.89c0-0.95 1.36-1.17 1.72-0.38 0.95 2.6 4.65 4.1 4.65 8.66 0 2.6-1.2 3.46-2.22 4.22l-0.36-0.58c1.2-1.43 1.52-3.59-0.54-5.44-0.87-0.82-2.79-1.58-2.79-0.89l-0.46 23.29z" fill="#00112C"/>
  <path d="m116.1 35.92 28.9-27.57c2.06-1.99 4.9 0.68 6.17 2.39 1.74 2.19 3.31 4.38 1.67 6.4l0.29 0.39c2.29 2.99 1.49 6.39-1.5 9.13l-16.92 16.98c-1.36 1.42-2.12 3.82-3.18 2.69-1.33-1.43 0.59-4.9 3.09-6.82l16.34-16.4c1.99-1.99 1.7-4.98 0.75-5.67l-26.81 26.63-8.8-8.15z" fill="#D69843" stroke="#00112C" stroke-miterlimit="10" stroke-width="2"/>
  <path d="m146.1 8.56 4.9-2.54c2.77-1.49 5.27 0.49 5.9 2.61 0.8 2.74-1.29 4.73-4.13 7.65l-6.67-7.72z" fill="#D9DFE2" stroke="#00112C" stroke-miterlimit="10" stroke-width="2"/>
  <path d="m116.1 36.14 29.75-27.43 7.17 7.4-27.42 26.63-9.5-6.6z" fill="url(#paint1_linear_1152_11863)" stroke="#00112C" stroke-miterlimit="10" stroke-width="2"/>
  <path d="m116.1 36.65 5.6 6.7c0.77 0.96 2.12 0.96 2.81 0.21l1.02-1.03-7.91-7.89-1.5 1.21c-0.36 0.21-0.36 0.5-0.02 0.8z" fill="#D69843" stroke="#00112C" stroke-miterlimit="10" stroke-width="2"/>
  <path d="m89.73 64.72 26.38-27.36 6.81 7.24-24.85 25.2-8.34-5.08z" fill="#B7C2CE" stroke="#00112C" stroke-miterlimit="10" stroke-width="2"/>
  <path d="m81.11 78.6c-0.62-0.35 0.5-3.34 4.34-8.87 1.57-2.47 3.66-5.01 4.28-5.01l5.38 5.08c-1.85 1.36-3.84 3.06-6.34 4.84-3.35 2.39-6.55 4.55-7.66 3.96z" fill="#D69843" stroke="#00112C" stroke-miterlimit="10" stroke-width="2"/>
  <path d="m82.23 77.61 5.81-7.45 1.92 1.49-7.73 5.96z" fill="#F5D786"/>
  <path d="m89.73 64.72 29.18-27.79 1.16 1.13-29.21 28.3-1.13-1.64z" fill="#D9DFE2"/>
  <path d="m25.14 48.11c0.28-1.35 2.2-1.86 3.08-0.9 0.95 1.02 1.71 1.53 2.74 0.51 1.67-1.68 1.45-7.76 2.78-10.5 0.51-1.06 1.07-1.13 1.07 0 0 2.74-1.07 8.67-3.57 11.73-2.13 2.74-5.61 1.79-6.1-0.84z" stroke="#00010A" stroke-miterlimit="10" stroke-width=".9"/>
  <path d="m38.35 46.81c1.26 0.42 2.11 0.31 2.72-0.89 1.02-2.16 1.78-5.96 1.99-8.12 0.15-1.27-1.05-1.49-1.74 0-1.36 3.13-1.36 7.39-2.97 9.01z" stroke="#00010A" stroke-miterlimit="10" stroke-width=".9"/>
  <path d="m46.15 41.71c-1.5 0-2.38 2.05-2.38 3.62 0 1.5 0.88 1.78 1.94 1.29 1.5-0.73 2.12-2.72 2.12-3.81 0-1.1-0.62-1.45-1.68-1.1z" stroke="#00010A" stroke-miterlimit="10" stroke-width=".9"/>
  <path d="m48.78 47.11c0.95 0 3.01-1.78 3.96-4.97 0.39-1.5 0.07-2.46 0.07-2.46s-0.14 3.43-2.4 5.14c-0.76 0.59-1.63-0.14-1.63-1.71v-1.99" stroke="#00010A" stroke-miterlimit="10" stroke-width=".9"/>
  <path d="m55.08 43.76c0.59 0.88 1.95 1.39 3.14 0.6 1.43-1.03 1.82-2.71 1.31-4.13-0.62-1.5-2.89-0.62-3.72 1.91-0.76 2.47 0.26 4.11 1.52 4.11" stroke="#00010A" stroke-miterlimit="10" stroke-width=".9"/>
  <path d="m65.05 46.9c0 1.13 0.76 1.13 1.38 0.25 1.43-1.99 2.78-7.33 2.78-9.11 0-1.03-1.35-1.32-2.3 0-1.13 1.64-1.35 4.1-0.47 4.56s2.31-1.56 2.77-2.99" stroke="#00010A" stroke-miterlimit="10" stroke-width=".9"/>
  <path d="m72.42 34.02 0.21-0.88" stroke="#00010A" stroke-miterlimit="10" stroke-width=".9"/>
  <path d="m72.13 36.41c-0.51 1.5-0.9 3.41-0.76 4.2 0.15 1.03 1.34 0.82 2.1-0.51 0.49-0.88 1.18-2.37 1.47-3.17-0.29 1.2-0.22 2.43 0.22 2.89 0.95 0.95 2.7-1.11 3.25-2.75 0.46-1.36 0.32-2.15-0.12-2.64 0.22 1.02-0.07 2.59-1.2 3.72" stroke="#00010A" stroke-miterlimit="10" stroke-width=".9"/>
  <path d="m80.81 36.93c0.66 0.95 1.92 1.24 3.05 0.08 1.06-1.13 1.85-2.84 2.06-3.87 0.29 1.03 0.44 2.05 1.13 2.71s1.92-0.29 2.28-1.24" stroke="#00010A" stroke-miterlimit="10" stroke-width=".9"/>
  <path d="m76.7 59.05 4.16-0.69" stroke="#00010A" stroke-miterlimit="10" stroke-width=".9"/>
  <path d="m77.19 58.11-0.51 4.49c-0.22 1.64-0.07 2.59 0.72 2.81 1.13 0.36 2.55-1.7 3.24-3.27 0.49-1.23 1.51-1.72 2.2-1.23 0.88 0.58 1.02 1.94-0.11 3-1.26 1.26-2.69 0.9-3.05 0.02" stroke="#00010A" stroke-miterlimit="10" stroke-width=".9"/>
  <path d="m96.44 39.22-0.59 5.75c-0.22 1.99-0.07 2.87 0.99 2.87 1.26 0 2.12-1.5 2.55-2.38" stroke="#00112C" stroke-miterlimit="10" stroke-width=".9"/>
  <path d="m95.64 43.06 3.7-1.35" stroke="#00112C" stroke-miterlimit="10" stroke-width=".9"/>
  <path d="m83.06 51.76 1.57-8.7" stroke="#00010A" stroke-miterlimit="10" stroke-width=".9"/>
  <path d="m84.01 49.02c0.76-1.57 2.33-2.89 3.02-2.53 0.88 0.49 0.44 2.31 0.88 3.07 0.51 0.88 1.8 0 2.36-1.43" stroke="#00010A" stroke-miterlimit="10" stroke-width=".9"/>
  <path d="m93.76 44.68c-1.33-0.76-3.32-0.07-4.15 2.22-0.76 2.16 0.07 2.95 1.02 2.52 1.03-0.49 1.98-2.27 2.44-3.5-0.21 1.23-0.28 2.26 0.21 2.82" stroke="#00010A" stroke-miterlimit="10" stroke-width=".9"/>
  <path d="m25.28 63.64 1.13-5.53" stroke="#00010A" stroke-miterlimit="10" stroke-width=".9"/>
  <path d="m26.41 61.86c0.79-1.57 1.81-3.42 2.6-3.42 0.62 0 0.62 1.06 0.33 2.48" stroke="#00010A" stroke-miterlimit="10" stroke-width=".9"/>
  <path d="m29.01 60.5c0.69-1.26 1.45-2.32 2.24-2.1 0.88 0.29 0.49 1.86 0.78 2.65 0.39 0.96 1.96-0.13 2.84-1.7" stroke="#00010A" stroke-miterlimit="10" stroke-width=".9"/>
  <path d="m35.16 55.81c0 1.43-0.22 4.03 0.73 4.25 1.26 0.29 2.83-2 3.32-3.43-0.49 2.54-2.13 7.35-4.05 9.44-1.23 1.42-1.85 1.06-1.85 0.04 0-1.5 2.4-2.85 3.7-3.51" stroke="#00010A" stroke-miterlimit="10" stroke-width=".9"/>
  <path d="m45.93 54.75c-0.29 1.5-0.51 4.16 0.44 4.38 1.06 0.22 1.92-2.32 2.34-3.89-0.15 1.43 0.07 3 0.83 3 1.03 0 2.19-1.99 2.78-4.08" stroke="#00010A" stroke-miterlimit="10" stroke-width=".9"/>
  <path d="m53.75 52.21 0.21-0.79" stroke="#00010A" stroke-miterlimit="10" stroke-width=".9"/>
  <path d="m53.96 54.09c-0.49 1.43-0.85 3.28-0.29 3.77 0.88 0.69 2.24-1.09 3-2.8 0.69-1.57 0.84-2.93 0.35-3.35 0.36 0.95 1.12 2.52 1.41 3.4 0.43 1.29 0.98 1.65 1.74 1.22 0.95-0.59 1.74-2.58 2.1-4.29" stroke="#00010A" stroke-miterlimit="10" stroke-width=".9"/>
  <path d="m68.14 56.55 1.03-2.54" stroke="#00010A" stroke-miterlimit="10" stroke-width=".9"/>
  <path d="m42.09 70.81c0.95-2.09 1.74-3.15 2.7-3.15 0.88 0 0.95 1.26 0.36 2.14-0.79 1.13-1.92 1.06-2.41 0.43 0.49 0.79 0.71 1.58 0.02 2.14" stroke="#936" stroke-miterlimit="10" stroke-width=".9"/>
  <path d="m48.71 69.24s0.76-1.5 1.35-1.5c0.79 0 0.57 1.32 0.08 2.28-0.69 1.36-0.55 2.15 0.24 2.15 1.06 0 2.19-1.75 3.07-3.74" stroke="#936" stroke-miterlimit="10" stroke-width=".9"/>
  <path d="m55.01 68.72c0.52-0.88 1.21-1.57 1.77-1.28 0.76 0.39 0.4 1.75-0.56 2.44-1.06 0.76-1.85 0.47-1.85 0.47" stroke="#936" stroke-miterlimit="10" stroke-width=".9"/>
  <path d="m58.16 67.22 0.79-0.21-0.51 3.41" stroke="#00010A" stroke-miterlimit="10" stroke-width=".9"/>
  <path d="m59.72 66.73c0.49-0.42 1.44-0.78 1.8-0.09 0.49 0.88-0.64 2.62-0.86 3.41" stroke="#00010A" stroke-miterlimit="10" stroke-width=".9"/>
  <path d="m64.41 66.02-0.79 2.73" stroke="#00010A" stroke-miterlimit="10" stroke-width=".9"/>
  <path d="m65.21 65.23c0.62-0.88 1.75-1.57 2.44-0.99 0.79 0.69-0.09 3.23 0.2 4.11 0.39 1.06 1.96-0.2 2.65-1.84" stroke="#00010A" stroke-miterlimit="10" stroke-width=".9"/>
  <path d="m52.81 83.23c0.62-2.09 1.28-4.35 2.71-4.35s1.72 3.83 2.41 5.18c0.66 1.36 2.3-0.9 2.99-3.44" stroke="#00010A" stroke-miterlimit="10" stroke-width=".9"/>
  <path d="m54.66 90.05c-0.43-1.5 1.14-3.21 2.5-4.24 2.26-1.68 2.95-4.97 3.24-7.99" stroke="#00010A" stroke-miterlimit="10" stroke-width=".9"/>
  <path d="m64.63 79.24c-1.5 0-2.38 1.99-2.38 3.28 0 1.32 0.96 1.47 1.91 0.88 1.36-0.88 1.85-2.59 1.7-3.47-0.15-1.02-0.64-1.09-1.23-0.69z" stroke="#00010A" stroke-miterlimit="10" stroke-width=".9"/>
  <path d="m67.57 78.11c-0.36 1.64-0.85 3.73 0.03 4.32 1.13 0.76 2.56-1.5 3.15-3.42-0.29 1.43-0.22 2.62 0.57 2.83 1.13 0.29 2.36-1.7 2.95-3.41" stroke="#00010A" stroke-miterlimit="10" stroke-width=".9"/>
  <path d="m77.09 80.93 0.59-0.62" stroke="#00010A" stroke-miterlimit="10" stroke-width=".9"/>
  <path d="m73.82 134.1 97.97-13.78" stroke="#707070" stroke-miterlimit="10" stroke-width=".5"/>
  <path d="m79.91 139.6 95.91-13.77" stroke="#707070" stroke-miterlimit="10" stroke-width=".5"/>
  <path d="m89.25 136.2 1.06-2.82" stroke="#00112C" stroke-miterlimit="10" stroke-width=".7"/>
  <path d="m91.51 136 0.95-2.43" stroke="#00112C" stroke-miterlimit="10" stroke-width=".7"/>
  <path d="m93.91 132.7 0.21 0.96" stroke="#00112C" stroke-miterlimit="10" stroke-width=".7"/>
  <path d="m95.76 128.4 2.06-1.57c0.69-0.49 0.91 0.47 0.54 1.03l-1.98 1.16c-0.62 0.39-0.62-0.62-0.62-0.62z" stroke="#00112C" stroke-miterlimit="10" stroke-width=".7"/>
  <path d="m100.4 125.9c-0.88 0-1.47 1.03-1.47 2.22 0 1.13 0.59 1.49 1.28 1.06 0.95-0.59 1.31-1.91 1.17-2.6-0.15-0.76-0.58-0.91-0.98-0.68z" stroke="#00112C" stroke-miterlimit="10" stroke-width=".7"/>
  <path d="m102.4 129 0.69-3.7 0.81 3.08 1.13-2.81 0.59 3.02" stroke="#00112C" stroke-miterlimit="10" stroke-width=".7"/>
  <path d="m108 124.8-0.69 0.22c-0.88 0.22-1.31 1.1-1.31 2.05s0.49 1.51 1.18 1.3c0.69-0.22 1.11-0.98 1.11-1.77" stroke="#00112C" stroke-miterlimit="10" stroke-width=".7"/>
  <path d="m111.1 123.2 4.08-0.69" stroke="#00112C" stroke-miterlimit="10" stroke-width=".7"/>
  <path d="m118.2 120.5 1.85-0.29v3.59l-1.47 0.29" stroke="#00112C" stroke-miterlimit="10" stroke-width=".7"/>
  <path d="m120.9 120v3.67" stroke="#00112C" stroke-miterlimit="10" stroke-width=".7"/>
  <path d="m122.2 123.4 1.26-4.05 1.33 3.4" stroke="#00112C" stroke-miterlimit="10" stroke-width=".7"/>
  <path d="m125.9 119.1 2.19-0.42v3.67l-1.71 0.36" stroke="#00112C" stroke-miterlimit="10" stroke-width=".7"/>
  <path d="m134.4 117.9 1.23-1.78 1.03 1.99" stroke="#00112C" stroke-miterlimit="10" stroke-width=".7"/>
  <path d="m139.3 116.6c-1.06 0.22-1.62 1.28-1.62 2.3 0 1.03 0.76 1.39 1.55 0.9 1.03-0.59 1.39-1.92 1.17-2.71-0.21-0.79-0.7-0.72-1.1-0.49z" stroke="#00112C" stroke-miterlimit="10" stroke-width=".7"/>
  <path d="m141.7 116.1 0.88 2.66" stroke="#00112C" stroke-miterlimit="10" stroke-width=".7"/>
  <path d="m148.6 114.7-1.36 0.22c-0.66 0.14-0.88 0.95-0.73 1.81 0.22 0.95 0.81 1.31 1.5 0.95l0.69-0.36" stroke="#00112C" stroke-miterlimit="10" stroke-width=".7"/>
  <path d="m149.6 117.6 1.33-3.4 1.26 2.99" stroke="#00112C" stroke-miterlimit="10" stroke-width=".7"/>
  <path d="m153.2 113.8 2.7-0.59-1.02 3.12" stroke="#00112C" stroke-miterlimit="10" stroke-width=".7"/>
  <path d="m159.1 112.8-0.69 0.22c-0.79 0.21-1.08 1.09-0.93 1.88 0.21 0.86 0.8 1.29 1.49 0.93l0.69-0.36" stroke="#00112C" stroke-miterlimit="10" stroke-width=".7"/>
  <path d="m124 128.1 2.92-1.03" stroke="#00112C" stroke-miterlimit="10" stroke-width=".7"/>
  <path d="m129.8 125.7 1.13-0.59 1.57 2.94" stroke="#00112C" stroke-miterlimit="10" stroke-width=".7"/>
  <path d="m132.7 124.6 0.79 2.85" stroke="#00112C" stroke-miterlimit="10" stroke-width=".7"/>
  <path d="m134.7 124.1 1.64 2.09 0.95-2.47 0.79 2.26" stroke="#00112C" stroke-miterlimit="10" stroke-width=".7"/>
  <path d="m139.3 123.1 1.85-0.51" stroke="#00112C" stroke-miterlimit="10" stroke-width=".7"/>
  <path d="m145.4 122.2 1.57-1.02c0.62-0.49 0.26-1.08-0.4-0.86l-0.79 0.36c-0.69 0.29-0.33 1.31 0.36 1.09l0.59-0.22" stroke="#00112C" stroke-miterlimit="10" stroke-width=".7"/>
  <path d="m148.4 121.4 1.75-0.51" stroke="#00112C" stroke-miterlimit="10" stroke-width=".7"/>
  <path d="m151.1 121.4 1.33-0.29c0.88-0.22 0.95-1.45 0.19-1.45l-1.52 0.22v2.76" stroke="#00112C" stroke-miterlimit="10" stroke-width=".7"/>
  <defs>
    <linearGradient id="paint0_linear_1152_11863" x1="59.13" x2="59.13" y1="8.939" y2="100.7" gradientUnits="userSpaceOnUse">
      <stop stop-color="#F5D786" offset="0"/>
      <stop stop-color="#D69843" offset="1"/>
    </linearGradient>
    <linearGradient id="paint1_linear_1152_11863" x1="134.6" x2="134.6" y1="8.706" y2="43.76" gradientUnits="userSpaceOnUse">
      <stop stop-color="#56C5D0" offset="0"/>
      <stop stop-color="#58BCCD" offset=".12"/>
      <stop stop-color="#5EA3C8" offset=".31"/>
      <stop stop-color="#6880BF" offset=".55"/>
      <stop stop-color="#7550B1" offset=".83"/>
      <stop stop-color="#7E2BAA" offset="1"/>
    </linearGradient>
  </defs>
</svg>